<?xml version="1.0" encoding="UTF-8"?>
<!-- Generator: Adobe Illustrator 16.0.0, SVG Export Plug-In . SVG Version: 6.00 Build 0)  -->
<!DOCTYPE svg PUBLIC "-//W3C//DTD SVG 1.1//EN" "http://www.w3.org/Graphics/SVG/1.1/DTD/svg11.dtd">
<svg version="1.1" id="Layer_1" xmlns="http://www.w3.org/2000/svg" xmlns:xlink="http://www.w3.org/1999/xlink" x="0px" y="0px" width="236.547px" height="236.547px" viewBox="0 0 236.547 236.547" enable-background="new 0 0 236.547 236.547" xml:space="preserve">
<g id="Layer_5">
	<g>
		<g>
			<g>
				<path fill="#2F2BAD" d="M235.6,118.037c0,64.934-52.635,117.562-117.562,117.562C53.11,235.6,0.475,182.969,0.475,118.037      C0.475,53.113,53.11,0.474,118.037,0.474C182.965,0.474,235.6,53.113,235.6,118.037z"/>
			</g>
		</g>
		<g>
			<path fill="#2F2BAD" d="M63.054,116.665c0-1.016,0.177-1.989,0.489-2.899c-4.569-5.17-9.138-10.34-13.706-15.51     c0.01,0.26,0.016,0.52,0.027,0.78c0.322,7.506,1.038,14.996,1.929,22.455c0.682,5.712,1.444,11.43,2.464,17.097     c3.343-5.802,6.686-11.604,10.03-17.402C63.509,119.857,63.054,118.315,63.054,116.665z"/>
			<path fill="#2F2BAD" d="M80.559,114.029c13.286,2.947,26.572,5.894,39.858,8.841c1.771-3.65,4.696-6.626,8.312-8.456     c-4.19-18.401-8.381-36.801-12.571-55.202C104.11,77.042,92.065,94.871,80.019,112.7     C80.23,113.126,80.416,113.568,80.559,114.029z"/>
			<path fill="#2F2BAD" d="M124.758,57.114c4.199,18.438,8.398,36.875,12.598,55.313c3.123,0.048,6.059,0.861,8.623,2.273     c9.693-10.676,19.388-21.351,29.08-32.025c-0.89-1.727-1.4-3.681-1.4-5.757c0-0.869,0.088-1.717,0.256-2.537     c-10.189-5.348-21.096-9.635-31.723-13.781c-5.047-1.971-10.127-3.918-15.289-5.585C126.286,55.81,125.564,56.514,124.758,57.114     z"/>
			<path fill="#2F2BAD" d="M152.489,120.693c1.95,2.934,3.093,6.451,3.093,10.236c0,1.7-0.249,3.34-0.678,4.903     c6.381,3.504,12.762,7.007,19.143,10.51c1.618-1.391,3.587-2.38,5.762-2.808c1.502-14.573,2.407-29.24,2.844-43.88     c0.104-3.527,0.203-7.071,0.199-10.611c-0.424-0.119-0.838-0.257-1.24-0.418C171.902,99.315,162.195,110.004,152.489,120.693z"/>
			<path fill="#2F2BAD" d="M118.581,131.529c-13.145-2.915-26.29-5.831-39.436-8.747c7.509,19.077,15.018,38.155,22.527,57.233     c7.417-12.018,14.833-24.035,22.25-36.055C120.734,140.749,118.736,136.372,118.581,131.529z"/>
			<path fill="#2F2BAD" d="M169.645,155.904c0-0.61,0.06-1.206,0.144-1.795c-6.404-3.516-12.81-7.031-19.213-10.547     c-3.38,3.61-8.173,5.881-13.507,5.881c-1.947,0-3.823-0.305-5.588-0.861c-7.026,11.387-14.055,22.773-21.083,34.161     c0.463-0.157,0.929-0.31,1.391-0.47c13.809-4.819,27.391-10.383,40.788-16.235c5.803-2.535,11.595-5.118,17.272-7.925     C169.723,157.395,169.645,156.659,169.645,155.904z"/>
			<path fill="#2F2BAD" d="M55.104,87.409c0,1.015-0.178,1.988-0.49,2.898c5.184,5.866,10.368,11.732,15.551,17.599     c0.594-0.124,1.208-0.191,1.839-0.191c0.233,0,0.461,0.018,0.689,0.035c11.454-16.955,22.909-33.91,34.365-50.864     c-9.507,4.227-18.676,9.558-27.645,14.58c-6.389,3.579-12.74,7.233-18.959,11.102c-1.712,1.066-3.656,2.233-5.475,3.412     C55.054,86.446,55.104,86.921,55.104,87.409z"/>
			<path fill="#2F2BAD" d="M71.266,126.82c-3.648,6.33-7.296,12.662-10.945,18.992c0.779,1.326,1.233,2.867,1.233,4.519     c0,0.974-0.16,1.907-0.448,2.784c8.894,9.117,18.676,17.719,28.811,25.312c0.774,0.58,1.554,1.156,2.339,1.728     C85.259,162.376,78.262,144.6,71.266,126.82z"/>
			<path fill="#FFFFFF" d="M198.873,76.919c0-6.963-5.648-12.61-12.609-12.61c-2.889,0-5.543,0.983-7.67,2.62     c-0.094-0.047-0.195-0.096-0.289-0.143c-13.609-6.859-27.865-12.678-42.172-17.913c-2.336-0.855-4.705-1.738-7.101-2.535     c-0.921-5.15-5.412-9.063-10.826-9.063c-5.752,0-10.467,4.415-10.959,10.04c-12.266,5.227-24.033,11.807-35.607,18.36     c-6.121,3.463-12.19,7.029-18.135,10.797c-1.329,0.842-2.736,1.695-4.125,2.595c-1.003-0.389-2.089-0.611-3.229-0.611     c-4.94,0-8.949,4.012-8.949,8.953c0,2.97,1.456,5.596,3.686,7.224c0.011,0.509,0.022,1.005,0.029,1.482     c0.097,7.2,0.811,14.407,1.58,21.566c0.814,7.543,1.815,15.079,3.091,22.562c0.204,1.19,0.385,2.51,0.597,3.858     c-1.564,1.61-2.531,3.807-2.531,6.229c0,4.941,4.007,8.949,8.95,8.949c0.627,0,1.239-0.065,1.83-0.188     c1.541,1.487,3.126,2.921,4.614,4.341c5.678,5.408,11.553,10.625,17.576,15.646c4.871,4.062,9.877,8.133,15.271,11.509     c0.376,4.595,4.22,8.214,8.913,8.214c4.006,0,7.398-2.638,8.539-6.268c10.311-2.924,20.399-7.467,30.219-11.471     c10.277-4.191,20.498-8.558,30.545-13.271c1.312-0.616,2.834-1.25,4.422-1.938c2.135,1.658,4.809,2.656,7.72,2.656     c6.962,0,12.606-5.647,12.606-12.605c0-4.684-2.56-8.764-6.351-10.938c0.658-5.901,1.13-11.827,1.554-17.749     c0.937-12.923,1.762-25.955,1.621-38.93C195.93,86.258,198.873,81.936,198.873,76.919z M182.652,99.655     c-0.438,14.64-1.342,29.307-2.846,43.88c-2.174,0.428-4.143,1.417-5.761,2.808c-6.381-3.503-12.762-7.006-19.144-10.51     c0.43-1.563,0.679-3.203,0.679-4.903c0-3.785-1.142-7.304-3.093-10.236c9.707-10.688,19.414-21.378,29.121-32.067     c0.402,0.161,0.816,0.299,1.24,0.418C182.855,92.584,182.757,96.128,182.652,99.655z M101.672,180.016     c-7.509-19.078-15.018-38.156-22.527-57.233c13.146,2.916,26.291,5.832,39.436,8.747c0.155,4.843,2.153,9.22,5.341,12.433     C116.505,155.98,109.089,167.999,101.672,180.016z M54.258,138.587c-1.021-5.667-1.783-11.385-2.464-17.097     c-0.891-7.458-1.607-14.949-1.929-22.455c-0.011-0.26-0.018-0.52-0.027-0.78c4.568,5.17,9.136,10.34,13.706,15.51     c-0.312,0.91-0.489,1.883-0.489,2.899c0,1.65,0.455,3.191,1.234,4.52C60.944,126.984,57.601,132.786,54.258,138.587z      M116.156,59.213c4.189,18.4,8.381,36.801,12.572,55.202c-3.615,1.83-6.541,4.806-8.312,8.456     c-13.286-2.947-26.572-5.895-39.858-8.841c-0.143-0.461-0.328-0.903-0.54-1.329C92.065,94.871,104.11,77.042,116.156,59.213z      M142.191,60.601c10.627,4.146,21.531,8.434,31.722,13.781c-0.168,0.819-0.256,1.667-0.256,2.537c0,2.076,0.512,4.03,1.401,5.757     c-9.693,10.674-19.388,21.35-29.08,32.025c-2.565-1.412-5.502-2.226-8.623-2.273c-4.199-18.438-8.398-36.876-12.599-55.313     c0.808-0.6,1.528-1.304,2.144-2.098C132.062,56.683,137.145,58.63,142.191,60.601z M79.413,71.465     c8.969-5.022,18.138-10.353,27.645-14.58C95.603,73.84,84.147,90.794,72.693,107.75c-0.228-0.017-0.457-0.035-0.689-0.035     c-0.63,0-1.245,0.067-1.839,0.191c-5.183-5.867-10.367-11.733-15.551-17.599c0.312-0.91,0.49-1.883,0.49-2.898     c0-0.488-0.05-0.963-0.125-1.43c1.819-1.179,3.763-2.346,5.475-3.412C66.673,78.698,73.024,75.044,79.413,71.465z      M61.106,153.115c0.288-0.877,0.448-1.812,0.448-2.784c0-1.649-0.455-3.19-1.233-4.519c3.648-6.33,7.297-12.662,10.945-18.991     c6.997,17.778,13.993,35.556,20.991,53.333c-0.785-0.571-1.565-1.147-2.339-1.729C79.783,170.833,70,162.232,61.106,153.115z      M111.789,182.273c-0.462,0.16-0.928,0.312-1.391,0.47c7.028-11.388,14.055-22.774,21.083-34.161     c1.765,0.559,3.641,0.861,5.588,0.861c5.334,0,10.127-2.271,13.507-5.881c6.403,3.516,12.809,7.031,19.213,10.547     c-0.084,0.589-0.144,1.185-0.144,1.795c0,0.755,0.078,1.49,0.207,2.209c-5.68,2.807-11.472,5.39-17.273,7.925     C139.18,171.891,125.598,177.454,111.789,182.273z"/>
		</g>
	</g>
</g>
</svg>