<?xml version="1.0" encoding="utf-8"?>
<!-- Generator: Adobe Illustrator 16.0.0, SVG Export Plug-In . SVG Version: 6.00 Build 0)  -->
<!DOCTYPE svg PUBLIC "-//W3C//DTD SVG 1.1//EN" "http://www.w3.org/Graphics/SVG/1.1/DTD/svg11.dtd">
<svg version="1.1" id="Layer_1" xmlns="http://www.w3.org/2000/svg" xmlns:xlink="http://www.w3.org/1999/xlink" x="0px" y="0px"
	 width="632.417px" height="132.25px" viewBox="0 0 632.417 132.25" enable-background="new 0 0 632.417 132.25"
	 xml:space="preserve">
<g>
	<g>
		<circle fill="#2F2BAD" cx="66.228" cy="66.178" r="65.748"/>
		<g>
			<path fill="none" d="M35.479,65.409c0-0.565,0.114-1.099,0.287-1.605c-2.558-2.894-5.116-5.79-7.674-8.685
				c0.005,0.143,0.005,0.286,0.011,0.429c0.18,4.196,0.579,8.389,1.078,12.56c0.381,3.193,0.807,6.392,1.378,9.56
				c1.873-3.249,3.746-6.498,5.618-9.748C35.745,67.179,35.479,66.329,35.479,65.409z"/>
			<path fill="none" d="M45.241,63.929c7.439,1.65,14.879,3.3,22.319,4.95c0.991-2.04,2.626-3.704,4.648-4.727l-7.031-30.875
				c-6.74,9.977-13.48,19.953-20.22,29.929C45.072,63.438,45.164,63.679,45.241,63.929z"/>
			<path fill="none" d="M69.986,32.103c2.349,10.312,4.698,20.625,7.047,30.939c1.745,0.027,3.385,0.481,4.819,1.27l16.265-17.91
				c-0.498-0.966-0.784-2.06-0.784-3.221c0-0.486,0.049-0.961,0.143-1.42c-5.698-2.991-11.797-5.387-17.739-7.706
				c-2.823-1.101-5.665-2.19-8.553-3.124C70.839,31.374,70.437,31.768,69.986,32.103z"/>
			<path fill="none" d="M85.495,67.662c1.092,1.64,1.73,3.606,1.73,5.723c0,0.952-0.139,1.87-0.38,2.746
				c3.569,1.959,7.138,3.918,10.706,5.878c0.904-0.777,2.005-1.331,3.221-1.569c0.841-8.15,1.349-16.356,1.591-24.545
				c0.059-1.97,0.115-3.952,0.112-5.932c-0.237-0.067-0.47-0.145-0.696-0.234L85.495,67.662z"/>
			<path fill="none" d="M66.532,73.723c-7.351-1.631-14.703-3.261-22.053-4.892l12.597,32.009
				c4.147-6.722,8.295-13.443,12.444-20.165C67.738,78.879,66.62,76.432,66.532,73.723z"/>
			<path fill="none" d="M31.031,49.045c0,0.565-0.115,1.1-0.288,1.607c2.904,3.287,5.807,6.573,8.711,9.859
				c0.333-0.069,0.676-0.108,1.029-0.108c0.128,0,0.248,0.028,0.373,0.038l19.225-28.456c-5.313,2.363-10.441,5.336-15.454,8.143
				c-3.572,2.002-7.125,4.049-10.602,6.211c-0.961,0.598-2.053,1.253-3.073,1.916C30.993,48.514,31.031,48.774,31.031,49.045z"/>
			<path fill="none" d="M95.09,87.354c0-0.341,0.033-0.674,0.08-1.003c-3.582-1.966-7.164-3.933-10.745-5.899
				c-1.889,2.02-4.57,3.288-7.552,3.288c-1.09,0-2.14-0.17-3.126-0.482c-3.927,6.364-7.854,12.729-11.781,19.092
				c0.255-0.087,0.515-0.159,0.769-0.249c7.724-2.697,15.318-5.805,22.812-9.078c3.248-1.418,6.482-2.867,9.659-4.438
				C95.133,88.184,95.09,87.773,95.09,87.354z"/>
			<path fill="none" d="M40.071,71.089c-2.044,3.546-4.088,7.092-6.131,10.638c0.433,0.74,0.698,1.591,0.698,2.51
				c0,0.529-0.104,1.03-0.257,1.51c5.007,5.135,10.381,9.898,16.12,14.204c0.433,0.324,0.869,0.646,1.309,0.966L40.071,71.089z"/>
			<path fill="#FFFFFF" d="M111.435,43.18c0-3.895-3.157-7.051-7.051-7.051c-1.617,0-3.101,0.55-4.291,1.465
				c-0.052-0.026-0.108-0.053-0.159-0.079c-7.612-3.838-15.584-7.094-23.586-10.016c-1.307-0.479-2.632-0.971-3.971-1.417
				c-0.512-2.883-3.025-5.074-6.056-5.074c-3.218,0-5.854,2.47-6.128,5.616c-6.861,2.926-13.44,6.604-19.911,10.27
				c-3.425,1.938-6.82,3.932-10.144,6.037c-0.744,0.473-1.532,0.951-2.31,1.456c-0.561-0.217-1.166-0.348-1.804-0.348
				c-2.765,0-5.006,2.241-5.006,5.006c0,1.661,0.818,3.122,2.063,4.033c0.006,0.288,0.013,0.568,0.017,0.837
				c0.053,4.027,0.453,8.059,0.885,12.062c0.446,4.222,1.023,8.43,1.728,12.617c0.114,0.667,0.215,1.406,0.334,2.162
				c-0.874,0.901-1.417,2.126-1.417,3.48c0,2.764,2.241,5.005,5.005,5.005c0.352,0,0.694-0.038,1.025-0.106
				c0.861,0.832,1.749,1.635,2.582,2.428c3.181,3.024,6.459,5.943,9.83,8.754c2.728,2.274,5.539,4.537,8.56,6.428
				c0.21,2.568,2.337,4.596,4.96,4.598c2.235,0.002,4.107-1.473,4.751-3.495c5.777-1.633,11.426-4.177,16.929-6.422
				c5.747-2.346,11.463-4.78,17.082-7.422c0.733-0.344,1.584-0.698,2.472-1.083c1.194,0.928,2.689,1.486,4.318,1.487
				c3.894-0.003,7.049-3.159,7.05-7.054c0-2.623-1.436-4.906-3.561-6.12c0.367-3.301,0.64-6.608,0.878-9.921
				c0.522-7.229,0.984-14.518,0.906-21.773C109.79,48.404,111.435,45.988,111.435,43.18z M102.363,55.894
				c-0.242,8.189-0.75,16.395-1.591,24.545c-1.215,0.238-2.316,0.792-3.221,1.569c-3.568-1.96-7.137-3.919-10.706-5.878
				c0.241-0.876,0.38-1.794,0.38-2.746c0-2.116-0.639-4.083-1.73-5.723l16.284-17.934c0.227,0.09,0.459,0.167,0.696,0.234
				C102.478,51.942,102.422,53.924,102.363,55.894z M57.076,100.84L44.479,68.831c7.351,1.631,14.702,3.261,22.053,4.892
				c0.087,2.709,1.206,5.156,2.987,6.952C65.371,87.396,61.223,94.118,57.076,100.84z M30.559,77.667
				c-0.571-3.168-0.997-6.366-1.378-9.56c-0.499-4.17-0.898-8.363-1.078-12.56c-0.006-0.143-0.006-0.286-0.011-0.429
				c2.558,2.896,5.116,5.791,7.674,8.685c-0.172,0.506-0.287,1.04-0.287,1.605c0,0.919,0.266,1.77,0.698,2.51
				C34.305,71.169,32.432,74.418,30.559,77.667z M65.177,33.277l7.031,30.875c-2.022,1.023-3.658,2.687-4.648,4.727
				c-7.44-1.649-14.879-3.299-22.319-4.95c-0.078-0.25-0.169-0.492-0.284-0.723C51.697,53.23,58.437,43.254,65.177,33.277z
				 M79.737,34.054c5.942,2.319,12.041,4.715,17.739,7.706c-0.094,0.458-0.143,0.934-0.143,1.42c0,1.162,0.286,2.255,0.784,3.221
				l-16.265,17.91c-1.434-0.789-3.074-1.243-4.819-1.27c-2.349-10.313-4.698-20.626-7.047-30.939
				c0.451-0.335,0.854-0.729,1.198-1.172C74.072,31.864,76.914,32.953,79.737,34.054z M44.627,40.128
				c5.013-2.806,10.141-5.779,15.454-8.143L40.856,60.441c-0.125-0.009-0.245-0.038-0.373-0.038c-0.353,0-0.696,0.039-1.029,0.108
				c-2.904-3.286-5.807-6.572-8.711-9.859c0.173-0.507,0.288-1.042,0.288-1.607c0-0.271-0.039-0.531-0.08-0.791
				c1.021-0.662,2.112-1.317,3.073-1.916C37.502,44.177,41.055,42.13,44.627,40.128z M34.381,85.746
				c0.153-0.479,0.257-0.98,0.257-1.51c0-0.919-0.266-1.77-0.698-2.51c2.043-3.546,4.087-7.092,6.131-10.638l11.738,29.827
				c-0.439-0.319-0.876-0.642-1.309-0.966C44.762,95.645,39.388,90.881,34.381,85.746z M62.733,102.1
				c-0.254,0.09-0.514,0.162-0.769,0.249c3.928-6.363,7.854-12.728,11.781-19.092c0.987,0.312,2.037,0.482,3.126,0.482
				c2.982,0,5.663-1.269,7.552-3.288c3.582,1.967,7.164,3.934,10.745,5.899c-0.047,0.329-0.08,0.662-0.08,1.003
				c0,0.42,0.043,0.83,0.114,1.229c-3.177,1.571-6.412,3.021-9.659,4.438C78.051,96.295,70.457,99.402,62.733,102.1z"/>
		</g>
		<g>
			<path fill="#2F2BAD" d="M180.149,46.23h19.434l6.613,25.721l1.062-5.713l4.979-20.008h15.352l-13.311,41.889h-20.33
				L180.149,46.23z M231.467,32.352c0-1.225,0.264-2.355,0.796-3.391c0.52-1.021,1.234-1.929,2.104-2.674
				c0.891-0.76,1.916-1.348,3.021-1.734c1.14-0.406,2.341-0.612,3.551-0.609c1.414,0,2.699,0.248,3.857,0.75
				c1.157,0.506,2.145,1.16,2.96,1.961c0.793,0.772,1.437,1.684,1.897,2.691c0.449,0.998,0.676,1.998,0.676,3.006
				c0,1.252-0.26,2.395-0.775,3.428c-0.505,1.022-1.214,1.932-2.082,2.672c-0.89,0.758-1.906,1.354-3.002,1.76
				c-1.129,0.42-2.306,0.633-3.531,0.633c-1.333,0-2.58-0.219-3.735-0.652c-1.157-0.438-2.159-1.043-3.001-1.82
				c-0.833-0.761-1.512-1.676-2-2.693C231.708,34.641,231.457,33.503,231.467,32.352z M257.596,85.914
				c-3.294,1.906-6.94,2.855-10.94,2.855c-2.369,0-4.477-0.392-6.327-1.181c-1.854-0.791-3.413-1.916-4.677-3.369
				c-1.268-1.456-2.225-3.219-2.878-5.286c-0.653-2.068-0.98-4.371-0.98-6.898V46.23h17.72v24.988c0,1.332,0.353,2.33,1.062,2.998
				c0.708,0.668,1.604,1.002,2.693,1.002c1.088,0,2.231-0.327,3.43-0.979L257.596,85.914z M262.454,46.844h17.637v8.535
				c1.332-3.377,3.107-5.85,5.326-7.414c2.22-1.564,4.771-2.344,7.656-2.344l2.45,13.676c-5.308,0-9.208,0.564-11.698,1.693
				c-2.49,1.127-3.734,2.932-3.734,5.41v21.719h-17.637V46.844z M331.939,80.361c-1.307,2.723-3.077,4.805-5.307,6.248
				c-2.231,1.438-5.036,2.16-8.411,2.16c-2.721,0-5.321-0.55-7.797-1.652c-2.453-1.086-4.672-2.639-6.533-4.572
				c-1.877-1.943-3.374-4.25-4.49-6.918c-1.117-2.668-1.673-5.564-1.673-8.695c0-3.104,0.563-5.96,1.692-8.574
				c1.129-2.611,2.639-4.863,4.531-6.758c1.871-1.878,4.09-3.375,6.532-4.408c2.445-1.044,5.078-1.578,7.737-1.57
				c1.388,0,2.754,0.18,4.104,0.549c1.365,0.375,2.66,0.968,3.838,1.756c1.209,0.801,2.312,1.816,3.305,3.043
				c0.994,1.227,1.82,2.693,2.473,4.41v-9.758h17.557V88.12h-17.557V80.361L331.939,80.361z M331.939,66.889
				c-0.052-1.074-0.314-2.127-0.773-3.1c-0.445-0.956-1.062-1.822-1.818-2.555c-0.752-0.725-1.631-1.306-2.592-1.715
				c-0.967-0.418-2.01-0.633-3.062-0.631c-1.197,0-2.309,0.225-3.328,0.674c-0.988,0.427-1.889,1.035-2.654,1.793
				c-0.754,0.758-1.356,1.653-1.774,2.637c-0.437,1.019-0.659,2.116-0.652,3.225c0,1.197,0.23,2.305,0.693,3.324
				c0.442,0.991,1.073,1.887,1.856,2.637c0.779,0.736,1.686,1.323,2.676,1.732c1.009,0.423,2.092,0.639,3.185,0.635
				c1.097,0.01,2.183-0.213,3.187-0.654c0.957-0.422,1.828-1.016,2.57-1.754c0.736-0.736,1.33-1.602,1.756-2.553
				c0.435-0.969,0.68-1.979,0.734-3.039v-0.656H331.939z M385.259,85.914c-3.784,1.906-7.979,2.855-12.576,2.855
				c-2.367,0-4.477-0.388-6.327-1.162c-1.853-0.777-3.409-1.892-4.677-3.349c-1.266-1.457-2.225-3.213-2.877-5.266
				c-0.652-2.054-0.979-4.375-0.979-6.959V33.006l17.635-2.615v40.417c0,1.498,0.478,2.604,1.432,3.326
				c0.951,0.723,2.244,1.084,3.878,1.084c1.25,0,2.53-0.328,3.837-0.979L385.259,85.914z M432.494,85.914
				c-3.783,1.906-7.979,2.855-12.572,2.855c-2.371,0-4.479-0.388-6.33-1.162c-1.854-0.777-3.41-1.892-4.676-3.349
				s-2.223-3.213-2.877-5.266c-0.652-2.054-0.98-4.375-0.98-6.959V33.006l17.639-2.615v40.417c0,1.498,0.475,2.604,1.428,3.326
				c0.951,0.723,2.246,1.084,3.879,1.084c1.25,0,2.531-0.328,3.836-0.979L432.494,85.914z M434.74,67.135
				c0.135-3.51,0.861-6.6,2.182-9.266c1.322-2.67,3.07-4.914,5.248-6.738c2.178-1.824,4.701-3.199,7.57-4.123
				c2.873-0.928,5.928-1.387,9.168-1.387c3.537,0,6.775,0.531,9.717,1.59c2.938,1.061,5.471,2.537,7.592,4.434
				c2.125,1.887,3.771,4.154,4.941,6.795c1.168,2.637,1.756,5.539,1.756,8.695c0,2.561-0.334,4.873-1.002,6.939
				c-0.666,2.07-1.57,3.898-2.713,5.49c-1.131,1.578-2.492,2.975-4.041,4.145c-1.547,1.168-3.234,2.135-5.021,2.879
				c-1.795,0.748-3.662,1.303-5.574,1.654c-1.922,0.35-3.83,0.527-5.736,0.527c-3.592,0-6.865-0.525-9.818-1.57
				c-2.953-1.049-5.49-2.523-7.611-4.432c-2.117-1.896-3.797-4.227-4.922-6.834C435.316,73.277,434.74,70.348,434.74,67.135
				L434.74,67.135z M451.07,67.135c0,1.521,0.223,2.857,0.672,4.002c0.445,1.146,1.043,2.092,1.775,2.857
				c0.734,0.765,1.578,1.332,2.531,1.713c0.92,0.377,1.906,0.571,2.9,0.574c0.986-0.002,1.963-0.197,2.875-0.574
				c0.939-0.381,1.783-0.947,2.531-1.713s1.348-1.713,1.797-2.857c0.447-1.144,0.676-2.479,0.676-4.002c0-1.525-0.229-2.859-0.676-4
				c-0.449-1.143-1.049-2.09-1.797-2.838c-0.721-0.73-1.582-1.306-2.531-1.693c-0.912-0.375-1.889-0.569-2.875-0.57
				c-0.982,0-1.947,0.189-2.9,0.57c-0.953,0.38-1.814,0.957-2.531,1.693c-0.732,0.748-1.33,1.695-1.775,2.838
				C451.292,64.275,451.07,65.609,451.07,67.135z M487.16,67.135c0.135-3.51,0.861-6.6,2.184-9.266
				c1.318-2.67,3.068-4.914,5.248-6.738c2.174-1.824,4.699-3.199,7.57-4.123c2.871-0.928,5.928-1.387,9.166-1.387
				c3.537,0,6.777,0.531,9.717,1.59c2.939,1.061,5.471,2.537,7.596,4.434c2.117,1.881,3.803,4.2,4.938,6.795
				c1.17,2.637,1.756,5.539,1.756,8.695c0,2.561-0.334,4.873-1,6.939c-0.666,2.07-1.572,3.898-2.715,5.49
				c-1.129,1.578-2.492,2.977-4.043,4.145c-1.545,1.168-3.232,2.136-5.021,2.879c-1.793,0.748-3.66,1.303-5.572,1.654
				c-1.918,0.35-3.83,0.527-5.736,0.527c-3.592,0-6.865-0.525-9.818-1.57c-2.955-1.049-5.49-2.523-7.609-4.432
				c-2.125-1.904-3.766-4.185-4.924-6.834C487.736,73.277,487.16,70.348,487.16,67.135L487.16,67.135z M503.49,67.135
				c0,1.521,0.223,2.857,0.672,4.002c0.449,1.146,1.043,2.092,1.775,2.857c0.711,0.747,1.574,1.331,2.531,1.713
				c0.955,0.383,1.92,0.574,2.898,0.574c0.98,0,1.939-0.191,2.879-0.574c0.953-0.389,1.814-0.973,2.531-1.713
				c0.75-0.766,1.346-1.713,1.795-2.857s0.676-2.479,0.676-4.002c0-1.525-0.227-2.859-0.676-4c-0.449-1.143-1.045-2.09-1.795-2.838
				c-0.721-0.729-1.582-1.306-2.531-1.693c-0.914-0.375-1.891-0.569-2.879-0.57c-0.979,0-1.943,0.189-2.898,0.57
				c-0.953,0.38-1.814,0.957-2.531,1.693c-0.732,0.748-1.326,1.695-1.775,2.838C503.712,64.275,503.49,65.609,503.49,67.135z
				 M572.976,88.77c-3.076,0-5.758-0.645-8.043-1.938c-2.287-1.293-4.18-3.449-5.676-6.47v18.617l-17.637,3.349V46.844h17.637v7.227
				c1.443-3.021,3.299-5.186,5.572-6.492c2.271-1.306,4.961-1.957,8.062-1.957c2.586,0,5.041,0.398,7.369,1.201
				c2.326,0.801,4.525,2.213,6.592,4.227c4.355,4.273,6.533,9.662,6.533,16.168c0,6.425-2.164,11.8-6.49,16.125
				c-2.016,2.019-4.188,3.425-6.514,4.224C578.056,88.371,575.587,88.77,572.976,88.77z M559.257,67.217
				c0,1.197,0.225,2.299,0.672,3.305c0.436,0.984,1.053,1.877,1.818,2.634c0.762,0.75,1.639,1.334,2.633,1.756
				c0.992,0.422,2.035,0.635,3.125,0.635c1.197,0,2.311-0.228,3.346-0.676c1.037-0.449,1.926-1.054,2.676-1.813
				c0.746-0.765,1.332-1.646,1.754-2.652s0.635-2.07,0.635-3.187c0-1.307-0.246-2.477-0.734-3.51
				c-0.49-1.035-1.139-1.908-1.939-2.613c-0.799-0.705-1.719-1.259-2.713-1.635c-0.965-0.372-1.988-0.565-3.021-0.57
				c-1.309,0-2.459,0.248-3.453,0.752c-0.992,0.506-1.83,1.145-2.508,1.922c-0.676,0.765-1.215,1.641-1.594,2.59
				c-0.383,0.955-0.611,1.867-0.695,2.737V67.217L559.257,67.217z M617.843,56.031c-3.322,0-4.98,0.572-4.98,1.717
				c0,0.432,0.123,0.818,0.367,1.16c0.246,0.34,0.572,0.639,0.979,0.896c0.41,0.26,0.859,0.473,1.348,0.635
				c0.479,0.159,0.971,0.269,1.473,0.328c2.146,0.326,4.141,0.82,5.977,1.486c1.838,0.668,3.432,1.561,4.777,2.68
				c1.348,1.116,2.436,2.514,3.186,4.096c0.775,1.621,1.164,3.549,1.164,5.781c0,2.203-0.389,4.17-1.164,5.896
				c-0.775,1.729-1.855,3.192-3.244,4.392c-1.389,1.196-3.02,2.108-4.898,2.733c-1.879,0.629-3.922,0.938-6.123,0.938
				c-3.568,0-6.828-0.158-9.779-0.484c-2.953-0.33-5.654-1.037-8.104-2.125l1.877-9.635c0.898,0.246,1.68,0.461,2.348,0.649
				c0.666,0.195,1.219,0.328,1.654,0.41c0.406,0.082,0.924,0.185,1.553,0.304c0.625,0.127,1.299,0.241,2.02,0.352
				c0.721,0.109,1.449,0.203,2.186,0.283c0.734,0.084,1.4,0.125,2,0.125c2.775,0,4.164-0.656,4.164-1.959
				c-0.076-0.508-0.297-0.984-0.633-1.371c-0.365-0.414-0.801-0.759-1.287-1.019c-0.564-0.304-1.158-0.545-1.775-0.719
				c-0.693-0.196-1.395-0.358-2.102-0.486c-2.123-0.409-3.996-0.952-5.613-1.633c-1.621-0.683-2.975-1.56-4.062-2.635
				c-1.09-1.074-1.914-2.395-2.473-3.961c-0.557-1.566-0.834-3.422-0.834-5.57c0.107-2.449,0.625-4.539,1.551-6.268
				c0.895-1.695,2.182-3.151,3.756-4.246c1.576-1.1,3.434-1.906,5.57-2.41s4.473-0.752,7.004-0.752c2.639,0,5.129,0.141,7.473,0.424
				c2.34,0.289,4.531,0.92,6.57,1.9l-1.795,9.963C623.884,56.656,620.509,56.031,617.843,56.031L617.843,56.031z"/>
		</g>
	</g>
</g>
</svg>
